<svg width="609.59375px" height="321.2px" xmlns="http://www.w3.org/2000/svg" viewBox="-54.796875 -85.6 609.59375 321.2" style="background: rgba(0, 0, 0, 0);" preserveAspectRatio="xMidYMid"><defs><linearGradient id="editing-outline-gradient" x1="-0.2193398003386512" x2="1.219339800338651" y1="-0.19465837045899725" y2="1.1946583704589973"><stop offset="0" stop-color="#d4400e"></stop><stop offset="1" stop-color="#ee4208"></stop></linearGradient><filter id="editing-outline" x="-100%" y="-100%" width="300%" height="300%"><feMorphology in="SourceGraphic" operator="dilate" radius="6" result="outline"></feMorphology><feComposite operator="out" in="outline" in2="SourceAlpha"></feComposite></filter></defs><g filter="url(#editing-outline)"><g transform="translate(32.75998091697693, 140.28500747680664)"><path d="M3.24 0L3.24-26.57L11.34-26.57L11.34-99.47L3.24-99.47L3.24-126.04L77.60-126.04L77.60-126.04Q97.85-126.04 109.19-117.77L109.19-117.77L109.19-117.77Q120.53-109.51 120.53-94.12L120.53-94.12L120.53-94.12Q120.53-84.56 115.99-78.00L115.99-78.00L115.99-78.00Q111.46-71.44 105.38-68.12L105.38-68.12L105.38-68.12Q99.31-64.80 93.64-63.67L93.64-63.67L93.64-62.05L93.64-62.05Q105.14-60.91 114.37-54.76L114.37-54.76L114.37-54.76Q123.61-48.60 123.61-32.72L123.61-32.72L123.61-32.72Q123.61-15.71 110.81-7.86L110.81-7.86L110.81-7.86Q98.01 0 77.60 0L77.60 0L3.24 0ZM56.70-72.90L65.45-72.90L65.45-72.90Q70.15-72.90 72.50-75.41L72.50-75.41L72.50-75.41Q74.84-77.92 74.84-83.27L74.84-83.27L74.84-89.10L74.84-89.10Q74.84-94.45 72.50-96.96L72.50-96.96L72.50-96.96Q70.15-99.47 65.45-99.47L65.45-99.47L56.70-99.47L56.70-72.90ZM56.70-26.57L66.58-26.57L66.58-26.57Q71.28-26.57 73.63-29.08L73.63-29.08L73.63-29.08Q75.98-31.59 75.98-36.94L75.98-36.94L75.98-44.06L75.98-44.06Q75.98-49.41 73.63-51.92L73.63-51.92L73.63-51.92Q71.28-54.43 66.58-54.43L66.58-54.43L56.70-54.43L56.70-26.57ZM190.35 0L128.79 0L128.79-26.57L136.89-26.57L136.89-99.47L128.79-99.47L128.79-126.04L190.35-126.04L190.35-99.47L182.25-99.47L182.25-26.57L190.35-26.57L190.35 0ZM270.70-26.57L270.70-39.85L302.94-39.85L302.94 0L195.86 0L195.86-23.33L245.75-99.47L228.91-99.47L228.91-86.18L196.67-86.18L196.67-126.04L300.35-126.04L300.35-102.71L250.61-26.57L270.70-26.57ZM369.36 2.27L369.36 2.27Q339.71 2.27 323.60-13.28L323.60-13.28L323.60-13.28Q307.48-28.84 307.48-63.02L307.48-63.02L307.48-63.02Q307.48-97.20 323.60-112.75L323.60-112.75L323.60-112.75Q339.71-128.30 369.36-128.30L369.36-128.30L369.36-128.30Q399.01-128.30 415.13-112.75L415.13-112.75L415.13-112.75Q431.24-97.20 431.24-63.02L431.24-63.02L431.24-63.02Q431.24-28.84 415.13-13.28L415.13-13.28L415.13-13.28Q399.01 2.27 369.36 2.27L369.36 2.27ZM369.36-26.57L369.36-26.57Q374.87-26.57 377.62-29.48L377.62-29.48L377.62-29.48Q380.38-32.40 380.38-38.56L380.38-38.56L380.38-87.48L380.38-87.48Q380.38-93.64 377.62-96.55L377.62-96.55L377.62-96.55Q374.87-99.47 369.36-99.47L369.36-99.47L369.36-99.47Q363.85-99.47 361.10-96.55L361.10-96.55L361.10-96.55Q358.34-93.64 358.34-87.48L358.34-87.48L358.34-38.56L358.34-38.56Q358.34-32.24 361.10-29.40L361.10-29.40L361.10-29.40Q363.85-26.57 369.36-26.57L369.36-26.57Z" fill="url(#editing-outline-gradient)"></path></g></g><style>text {
  font-size: 64px;
  font-family: Arial Black;
  dominant-baseline: central;
  text-anchor: middle;
}</style></svg>