<svg width="485.825px" height="257.6px" xmlns="http://www.w3.org/2000/svg" viewBox="7.087500000000006 -53.80000000000001 485.825 257.6" style="background: rgba(0, 0, 0, 0);" preserveAspectRatio="xMidYMid"><defs><linearGradient id="editing-outline-gradient" x1="0.34356553495976905" x2="0.656434465040231" y1="-0.48768834059513777" y2="1.4876883405951378"><stop offset="0" stop-color="#d4400e"></stop><stop offset="1" stop-color="#ffffff"></stop></linearGradient><filter id="editing-outline" x="-100%" y="-100%" width="300%" height="300%"><feMorphology in="SourceGraphic" operator="dilate" radius="2" result="outline"></feMorphology><feComposite operator="out" in="outline" in2="SourceAlpha"></feComposite></filter></defs><g filter="url(#editing-outline)"><g transform="translate(78.34998083114624, 126.58500099182129)"><path d="M2.56 0L2.56-20.99L8.96-20.99L8.96-78.59L2.56-78.59L2.56-99.58L61.31-99.58L61.31-99.58Q77.31-99.58 86.27-93.06L86.27-93.06L86.27-93.06Q95.23-86.53 95.23-74.37L95.23-74.37L95.23-74.37Q95.23-66.82 91.65-61.63L91.65-61.63L91.65-61.63Q88.06-56.45 83.26-53.82L83.26-53.82L83.26-53.82Q78.46-51.20 73.98-50.30L73.98-50.30L73.98-49.02L73.98-49.02Q83.07-48.13 90.37-43.26L90.37-43.26L90.37-43.26Q97.66-38.40 97.66-25.86L97.66-25.86L97.66-25.86Q97.66-12.42 87.55-6.21L87.55-6.21L87.55-6.21Q77.44 0 61.31 0L61.31 0L2.56 0ZM44.80-57.60L51.71-57.60L51.71-57.60Q55.42-57.60 57.28-59.58L57.28-59.58L57.28-59.58Q59.14-61.57 59.14-65.79L59.14-65.79L59.14-70.40L59.14-70.40Q59.14-74.62 57.28-76.61L57.28-76.61L57.28-76.61Q55.42-78.59 51.71-78.59L51.71-78.59L44.80-78.59L44.80-57.60ZM44.80-20.99L52.61-20.99L52.61-20.99Q56.32-20.99 58.18-22.98L58.18-22.98L58.18-22.98Q60.03-24.96 60.03-29.18L60.03-29.18L60.03-34.82L60.03-34.82Q60.03-39.04 58.18-41.02L58.18-41.02L58.18-41.02Q56.32-43.01 52.61-43.01L52.61-43.01L44.80-43.01L44.80-20.99ZM150.40 0L101.76 0L101.76-20.99L108.16-20.99L108.16-78.59L101.76-78.59L101.76-99.58L150.40-99.58L150.40-78.59L144-78.59L144-20.99L150.40-20.99L150.40 0ZM213.89-20.99L213.89-31.49L239.36-31.49L239.36 0L154.75 0L154.75-18.43L194.18-78.59L180.86-78.59L180.86-68.10L155.39-68.10L155.39-99.58L237.31-99.58L237.31-81.15L198.02-20.99L213.89-20.99ZM291.84 1.79L291.84 1.79Q268.42 1.79 255.68-10.50L255.68-10.50L255.68-10.50Q242.94-22.78 242.94-49.79L242.94-49.79L242.94-49.79Q242.94-76.80 255.68-89.09L255.68-89.09L255.68-89.09Q268.42-101.38 291.84-101.38L291.84-101.38L291.84-101.38Q315.26-101.38 328-89.09L328-89.09L328-89.09Q340.74-76.80 340.74-49.79L340.74-49.79L340.74-49.79Q340.74-22.78 328-10.50L328-10.50L328-10.50Q315.26 1.79 291.84 1.79L291.84 1.79ZM291.84-20.99L291.84-20.99Q296.19-20.99 298.37-23.30L298.37-23.30L298.37-23.30Q300.54-25.60 300.54-30.46L300.54-30.46L300.54-69.12L300.54-69.12Q300.54-73.98 298.37-76.29L298.37-76.29L298.37-76.29Q296.19-78.59 291.84-78.59L291.84-78.59L291.84-78.59Q287.49-78.59 285.31-76.29L285.31-76.29L285.31-76.29Q283.14-73.98 283.14-69.12L283.14-69.12L283.14-30.46L283.14-30.46Q283.14-25.47 285.31-23.23L285.31-23.23L285.31-23.23Q287.49-20.99 291.84-20.99L291.84-20.99Z" fill="url(#editing-outline-gradient)"></path></g></g><style>text {
  font-size: 64px;
  font-family: Arial Black;
  dominant-baseline: central;
  text-anchor: middle;
}</style></svg>